<svg xmlns="http://www.w3.org/2000/svg" xmlns:xlink="http://www.w3.org/1999/xlink" version="1.1" width="500" height="300" viewBox="160 180 300 90" xml:space="preserve" style="background-color:transparent;">
<!--<svg xmlns="http://www.w3.org/2000/svg" xmlns:xlink="http://www.w3.org/1999/xlink" version="1.1" width="500" height="300" viewBox="80 210 400 100" xml:space="preserve" style="background-color:transparent;">-->

  <defs></defs>
    <g transform="matrix(1 0 0 1 234.28999999750036 273.82365000000004)" style="">
    <path fill="#193441" opacity="1" d="M47.74-4.20L47.74-4.20Q47.07-4.20 46.61-4.65Q46.16-5.11 46.16-5.78L46.16-5.78L46.16-26.40Q46.16-27.10 46.61-27.54Q47.07-27.98 47.74-27.98L47.74-27.98Q48.65-27.98 49.14-27.13L49.14-27.13L58.67-8.03L57.70-8.03L66.99-27.13Q67.47-27.98 68.39-27.98L68.39-27.98Q69.06-27.98 69.51-27.54Q69.97-27.10 69.97-26.40L69.97-26.40L69.97-5.78Q69.97-5.11 69.50-4.65Q69.03-4.20 68.39-4.20L68.39-4.20Q67.72-4.20 67.26-4.65Q66.80-5.11 66.80-5.78L66.80-5.78L66.80-22.01L67.41-22.16L59.43-5.90Q58.92-5.11 58.06-5.11L58.06-5.11Q57.06-5.11 56.60-6.06L56.60-6.06L48.72-21.86L49.32-22.01L49.32-5.78Q49.32-5.11 48.87-4.65Q48.41-4.20 47.74-4.20Z" />
        <path fill="#193441" opacity="1" d="M86.72-3.89L86.72-3.89Q84.25-3.89 82.10-4.82Q79.96-5.75 78.36-7.41Q76.76-9.07 75.86-11.29Q74.96-13.52 74.96-16.10L74.96-16.10Q74.96-18.66 75.86-20.87Q76.76-23.08 78.36-24.74Q79.96-26.40 82.09-27.34Q84.22-28.28 86.72-28.28L86.72-28.28Q89.06-28.28 90.75-27.67Q92.44-27.07 94.15-25.67L94.15-25.67Q94.39-25.48 94.53-25.28Q94.66-25.09 94.71-24.89Q94.76-24.69 94.76-24.42L94.76-24.42Q94.76-23.84 94.34-23.46Q93.93-23.08 93.36-23.03Q92.78-22.99 92.23-23.41L92.23-23.41Q91.10-24.39 89.90-24.90Q88.70-25.42 86.72-25.42L86.72-25.42Q84.92-25.42 83.34-24.69Q81.75-23.96 80.55-22.68Q79.35-21.40 78.68-19.71Q78.01-18.02 78.01-16.10L78.01-16.10Q78.01-14.15 78.68-12.47Q79.35-10.78 80.55-9.50Q81.75-8.22 83.34-7.50Q84.92-6.79 86.72-6.79L86.72-6.79Q88.27-6.79 89.66-7.32Q91.04-7.85 92.32-8.80L92.32-8.80Q92.87-9.19 93.40-9.15Q93.93-9.10 94.30-8.72Q94.66-8.34 94.66-7.67L94.66-7.67Q94.66-7.36 94.54-7.08Q94.42-6.79 94.18-6.54L94.18-6.54Q92.53-5.23 90.66-4.56Q88.79-3.89 86.72-3.89Z" />
        <path fill="#193441" opacity="1" d="M101.27-4.20L101.27-4.20Q100.60-4.20 100.16-4.65Q99.72-5.11 99.72-5.78L99.72-5.78L99.72-26.40Q99.72-27.10 100.16-27.54Q100.60-27.98 101.27-27.98L101.27-27.98Q102.00-27.98 102.49-27.40L102.49-27.40L115.77-9.74L115.77-26.40Q115.77-27.10 116.22-27.54Q116.68-27.98 117.35-27.98L117.35-27.98Q118.05-27.98 118.48-27.54Q118.90-27.10 118.90-26.40L118.90-26.40L118.90-5.78Q118.90-5.11 118.48-4.65Q118.05-4.20 117.35-4.20L117.35-4.20Q117.05-4.20 116.70-4.33Q116.34-4.47 116.13-4.75L116.13-4.75L102.86-22.41L102.86-5.78Q102.86-5.11 102.41-4.65Q101.97-4.20 101.27-4.20Z" />
        <path fill="#193441" opacity="1" d="M132.09-4.20L126.58-4.20Q125.91-4.20 125.45-4.65Q124.99-5.11 124.99-5.78L124.99-5.78L124.99-26.40Q124.99-27.10 125.45-27.54Q125.91-27.98 126.58-27.98L126.58-27.98L132.09-27.98Q134.71-27.98 136.85-27.11Q139.00-26.24 140.58-24.65Q142.17-23.05 143.02-20.88Q143.87-18.72 143.87-16.10L143.87-16.10Q143.87-13.49 143.02-11.31Q142.17-9.13 140.58-7.53Q139.00-5.93 136.85-5.07Q134.71-4.20 132.09-4.20L132.09-4.20ZM128.16-25.18L128.16-7.00L132.09-7.00Q134.65-7.00 136.61-8.17Q138.57-9.34 139.70-11.40Q140.83-13.45 140.83-16.10L140.83-16.10Q140.83-18.78 139.70-20.82Q138.57-22.86 136.61-24.02Q134.65-25.18 132.09-25.18L132.09-25.18L128.16-25.18Z" />
        <path fill="#193441" opacity="1" d="M-58.07 23.63L-58.07 23.63Q-60.54 23.63-62.69 22.70Q-64.83 21.78-66.43 20.12Q-68.03 18.46-68.93 16.23Q-69.83 14.01-69.83 11.42L-69.83 11.42Q-69.83 8.87-68.93 6.66Q-68.03 4.45-66.43 2.79Q-64.83 1.13-62.70 0.19Q-60.57-0.76-58.07-0.76L-58.07-0.76Q-55.73-0.76-54.04-0.15Q-52.35 0.46-50.64 1.86L-50.64 1.86Q-50.40 2.04-50.26 2.24Q-50.13 2.44-50.08 2.64Q-50.03 2.84-50.03 3.11L-50.03 3.11Q-50.03 3.69-50.45 4.07Q-50.86 4.45-51.43 4.50Q-52.01 4.54-52.56 4.12L-52.56 4.12Q-53.69 3.14-54.89 2.62Q-56.09 2.11-58.07 2.11L-58.07 2.11Q-59.87 2.11-61.45 2.84Q-63.04 3.57-64.24 4.85Q-65.44 6.12-66.11 7.81Q-66.78 9.50-66.78 11.42L-66.78 11.42Q-66.78 13.37-66.11 15.06Q-65.44 16.75-64.24 18.03Q-63.04 19.31-61.45 20.03Q-59.87 20.74-58.07 20.74L-58.07 20.74Q-56.52 20.74-55.13 20.21Q-53.75 19.67-52.47 18.73L-52.47 18.73Q-51.92 18.34-51.39 18.38Q-50.86 18.43-50.49 18.81Q-50.13 19.19-50.13 19.86L-50.13 19.86Q-50.13 20.16-50.25 20.45Q-50.37 20.74-50.61 20.98L-50.61 20.98Q-52.26 22.29-54.13 22.96Q-56.00 23.63-58.07 23.63Z" />
        <path fill="#193441" opacity="1" d="M-34.08 23.63L-34.08 23.63Q-36.76 23.63-38.98 22.74Q-41.20 21.84-42.80 20.21Q-44.40 18.58-45.28 16.34Q-46.17 14.10-46.17 11.42L-46.17 11.42Q-46.17 8.74-45.28 6.52Q-44.40 4.30-42.80 2.67Q-41.20 1.04-38.98 0.14Q-36.76-0.76-34.08-0.76L-34.08-0.76Q-31.40-0.76-29.19 0.14Q-26.98 1.04-25.37 2.67Q-23.76 4.30-22.87 6.52Q-21.99 8.74-21.99 11.42L-21.99 11.42Q-21.99 14.10-22.87 16.34Q-23.76 18.58-25.37 20.21Q-26.98 21.84-29.19 22.74Q-31.40 23.63-34.08 23.63ZM-34.08 20.77L-34.08 20.77Q-32.10 20.77-30.44 20.06Q-28.78 19.34-27.56 18.08Q-26.34 16.81-25.69 15.11Q-25.03 13.40-25.03 11.42L-25.03 11.42Q-25.03 9.44-25.69 7.74Q-26.34 6.03-27.56 4.77Q-28.78 3.51-30.44 2.81Q-32.10 2.11-34.08 2.11L-34.08 2.11Q-36.06 2.11-37.72 2.81Q-39.38 3.51-40.58 4.77Q-41.78 6.03-42.45 7.74Q-43.12 9.44-43.12 11.42L-43.12 11.42Q-43.12 13.40-42.45 15.11Q-41.78 16.81-40.58 18.08Q-39.38 19.34-37.72 20.06Q-36.06 20.77-34.08 20.77Z" />
        <path fill="#193441" opacity="1" d="M-15.47 23.33L-15.47 23.33Q-16.14 23.33-16.58 22.87Q-17.03 22.42-17.03 21.75L-17.03 21.75L-17.03 1.13Q-17.03 0.43-16.58-0.01Q-16.14-0.45-15.47-0.45L-15.47-0.45Q-14.74-0.45-14.26 0.13L-14.26 0.13L-0.98 17.79L-0.98 1.13Q-0.98 0.43-0.52-0.01Q-0.07-0.45 0.60-0.45L0.60-0.45Q1.30-0.45 1.73-0.01Q2.16 0.43 2.16 1.13L2.16 1.13L2.16 21.75Q2.16 22.42 1.73 22.87Q1.30 23.33 0.60 23.33L0.60 23.33Q0.30 23.33-0.05 23.19Q-0.40 23.05-0.61 22.78L-0.61 22.78L-13.89 5.12L-13.89 21.75Q-13.89 22.42-14.33 22.87Q-14.77 23.33-15.47 23.33Z" />
        <path fill="#193441" opacity="1" d="M15.80 23.63L15.80 23.63Q13.85 23.63 12.08 23.02Q10.32 22.42 9.01 21.32Q7.70 20.22 7.09 18.79L7.09 18.79Q6.79 18.15 7.11 17.60Q7.43 17.06 8.19 16.90L8.19 16.90Q8.73 16.78 9.27 17.07Q9.80 17.36 10.07 17.94L10.07 17.94Q10.44 18.70 11.28 19.34Q12.11 19.98 13.30 20.38Q14.49 20.77 15.80 20.77L15.80 20.77Q17.26 20.77 18.49 20.31Q19.73 19.86 20.49 18.99Q21.25 18.12 21.25 16.84L21.25 16.84Q21.25 15.23 19.99 13.95Q18.72 12.67 15.83 12.37L15.83 12.37Q12.05 12.00 9.89 10.14Q7.73 8.29 7.73 5.55L7.73 5.55Q7.73 3.54 8.86 2.14Q9.98 0.74 11.92 0.00Q13.85-0.73 16.23-0.73L16.23-0.73Q18.08-0.73 19.47-0.21Q20.85 0.31 21.89 1.22Q22.92 2.14 23.69 3.38L23.69 3.38Q24.11 4.05 24.04 4.65Q23.96 5.24 23.44 5.58L23.44 5.58Q22.86 5.94 22.19 5.73Q21.52 5.52 21.19 4.94L21.19 4.94Q20.70 4.05 20.00 3.45Q19.30 2.84 18.36 2.49Q17.41 2.14 16.13 2.14L16.13 2.14Q13.88 2.11 12.36 2.97Q10.84 3.84 10.84 5.64L10.84 5.64Q10.84 6.55 11.31 7.39Q11.78 8.23 13.04 8.83Q14.31 9.44 16.68 9.69L16.68 9.69Q20.31 10.05 22.33 11.89Q24.36 13.74 24.36 16.75L24.36 16.75Q24.36 18.49 23.64 19.77Q22.92 21.05 21.72 21.91Q20.52 22.78 18.98 23.21Q17.44 23.63 15.80 23.63Z" />
        <path fill="#193441" opacity="1" d="M39.15 23.82L39.15 23.82Q36.23 23.82 33.98 22.74Q31.72 21.65 30.46 19.74Q29.20 17.82 29.20 15.35L29.20 15.35L29.20 1.13Q29.20 0.43 29.65-0.01Q30.11-0.45 30.78-0.45L30.78-0.45Q31.48-0.45 31.92-0.01Q32.36 0.43 32.36 1.13L32.36 1.13L32.36 15.35Q32.36 17.00 33.23 18.26Q34.10 19.52 35.64 20.24Q37.17 20.95 39.15 20.95L39.15 20.95Q41.07 20.95 42.55 20.24Q44.03 19.52 44.86 18.26Q45.70 17.00 45.70 15.35L45.70 15.35L45.70 1.13Q45.70 0.43 46.16-0.01Q46.61-0.45 47.28-0.45L47.28-0.45Q47.98-0.45 48.41-0.01Q48.84 0.43 48.84 1.13L48.84 1.13L48.84 15.35Q48.84 17.82 47.60 19.74Q46.37 21.65 44.18 22.74Q41.99 23.82 39.15 23.82Z" />
        <path fill="#193441" opacity="1" d="M69.09 23.33L56.48 23.33Q55.81 23.33 55.37 22.87Q54.93 22.42 54.93 21.75L54.93 21.75L54.93 1.13Q54.93 0.46 55.38 0.00Q55.84-0.45 56.48-0.45L56.48-0.45Q57.15-0.45 57.61 0.00Q58.06 0.46 58.06 1.13L58.06 1.13L58.06 20.16L69.09 20.16Q69.76 20.16 70.21 20.62Q70.67 21.08 70.67 21.75L70.67 21.75Q70.67 22.42 70.21 22.87Q69.76 23.33 69.09 23.33L69.09 23.33Z" />
        <path fill="#193441" opacity="1" d="M77.55 23.33L77.55 23.33Q76.88 23.33 76.42 22.87Q75.97 22.42 75.97 21.75L75.97 21.75L75.97-0.45L79.13-0.45L79.13 21.75Q79.13 22.42 78.68 22.87Q78.22 23.33 77.55 23.33ZM85.68 2.47L69.39 2.47Q68.75 2.47 68.34 2.06Q67.93 1.65 67.93 1.01L67.93 1.01Q67.93 0.37 68.34-0.04Q68.75-0.45 69.39-0.45L69.39-0.45L85.68-0.45Q86.32-0.45 86.73-0.04Q87.14 0.37 87.14 1.01L87.14 1.01Q87.14 1.65 86.73 2.06Q86.32 2.47 85.68 2.47L85.68 2.47Z" />
        <path fill="#193441" opacity="1" d="M92.23 23.33L92.23 23.33Q91.56 23.33 91.10 22.87Q90.65 22.42 90.65 21.75L90.65 21.75L90.65 1.13Q90.65 0.43 91.10-0.01Q91.56-0.45 92.23-0.45L92.23-0.45Q92.93-0.45 93.37-0.01Q93.81 0.43 93.81 1.13L93.81 1.13L93.81 21.75Q93.81 22.42 93.37 22.87Q92.93 23.33 92.23 23.33Z" />
        <path fill="#193441" opacity="1" d="M101.45 23.33L101.45 23.33Q100.78 23.33 100.34 22.87Q99.90 22.42 99.90 21.75L99.90 21.75L99.90 1.13Q99.90 0.43 100.34-0.01Q100.78-0.45 101.45-0.45L101.45-0.45Q102.19-0.45 102.67 0.13L102.67 0.13L115.95 17.79L115.95 1.13Q115.95 0.43 116.41-0.01Q116.86-0.45 117.53-0.45L117.53-0.45Q118.23-0.45 118.66-0.01Q119.09 0.43 119.09 1.13L119.09 1.13L119.09 21.75Q119.09 22.42 118.66 22.87Q118.23 23.33 117.53 23.33L117.53 23.33Q117.23 23.33 116.88 23.19Q116.53 23.05 116.31 22.78L116.31 22.78L103.04 5.12L103.04 21.75Q103.04 22.42 102.60 22.87Q102.16 23.33 101.45 23.33Z" />
        <path fill="#193441" opacity="1" d="M135.83 23.63L135.83 23.63Q133.37 23.63 131.22 22.70Q129.07 21.78 127.47 20.12Q125.88 18.46 124.98 16.23Q124.08 14.01 124.08 11.42L124.08 11.42Q124.08 8.87 124.98 6.66Q125.88 4.45 127.47 2.79Q129.07 1.13 131.20 0.19Q133.34-0.76 135.83-0.76L135.83-0.76Q138.18-0.76 139.87-0.15Q141.56 0.46 143.26 1.86L143.26 1.86Q143.51 2.04 143.64 2.24Q143.78 2.44 143.83 2.64Q143.87 2.84 143.87 3.11L143.87 3.11Q143.87 3.69 143.46 4.08Q143.05 4.48 142.46 4.51Q141.86 4.54 141.34 4.12L141.34 4.12Q140.22 3.14 139.01 2.62Q137.81 2.11 135.83 2.11L135.83 2.11Q134.04 2.11 132.45 2.84Q130.87 3.57 129.67 4.85Q128.46 6.12 127.79 7.81Q127.12 9.50 127.12 11.42L127.12 11.42Q127.12 13.37 127.79 15.06Q128.46 16.75 129.67 18.03Q130.87 19.31 132.45 20.03Q134.04 20.74 135.83 20.74L135.83 20.74Q137.39 20.74 138.77 20.21Q140.16 19.67 141.44 18.73L141.44 18.73Q141.98 18.34 142.52 18.38Q143.05 18.43 143.41 18.81Q143.78 19.19 143.78 19.86L143.78 19.86Q143.78 20.16 143.67 20.45Q143.57 20.74 143.29 20.98L143.29 20.98Q141.68 22.32 139.79 22.98Q137.90 23.63 135.83 23.63ZM143.78 12.58L143.78 19.86L140.74 19.25L140.74 13.80L136.53 13.80Q135.86 13.80 135.41 13.40Q134.95 13.01 134.95 12.40L134.95 12.40Q134.95 11.79 135.41 11.39Q135.86 11.00 136.53 11.00L136.53 11.00L142.23 11.00Q142.93 11.00 143.35 11.44Q143.78 11.88 143.78 12.58L143.78 12.58Z" />
  </g>
<!--    <g transform="matrix(1 0 0 1 225.4641125456991 338.925)" style="">-->
<!--    <path fill="#193441" opacity="1" d="M-134.30 5.65L-142.44 5.65Q-142.84 5.65-143.11 5.38Q-143.38 5.11-143.38 4.72L-143.38 4.72L-143.38-7.47Q-143.38-7.88-143.11-8.14Q-142.84-8.40-142.44-8.40L-142.44-8.40L-134.30-8.40Q-133.89-8.40-133.64-8.16Q-133.39-7.92-133.39-7.52L-133.39-7.52Q-133.39-7.14-133.64-6.91Q-133.89-6.68-134.30-6.68L-134.30-6.68L-141.50-6.68L-141.50-2.30L-136.34-2.30Q-135.92-2.30-135.67-2.06Q-135.42-1.82-135.42-1.44L-135.42-1.44Q-135.42-1.06-135.67-0.82Q-135.92-0.57-136.34-0.57L-136.34-0.57L-141.50-0.57L-141.50 3.93L-134.30 3.93Q-133.89 3.93-133.64 4.16Q-133.39 4.39-133.39 4.77L-133.39 4.77Q-133.39 5.17-133.64 5.41Q-133.89 5.65-134.30 5.65L-134.30 5.65Z" />-->
<!--        <path fill="#193441" opacity="1" d="M-118.03 5.67L-118.03 5.67Q-118.43 5.67-118.69 5.41Q-118.95 5.15-118.95 4.75L-118.95 4.75L-118.95-0.39Q-118.95-1.53-119.51-2.08Q-120.07-2.63-120.97-2.63L-120.97-2.63Q-121.90-2.63-122.51-1.98Q-123.11-1.33-123.11-0.32L-123.11-0.32L-124.60-0.32Q-124.60-1.49-124.10-2.38Q-123.59-3.27-122.69-3.78Q-121.78-4.28-120.61-4.28L-120.61-4.28Q-119.58-4.28-118.79-3.83Q-118.00-3.38-117.56-2.51Q-117.11-1.64-117.11-0.39L-117.11-0.39L-117.11 4.75Q-117.11 5.15-117.37 5.41Q-117.62 5.67-118.03 5.67ZM-130.04 5.67L-130.04 5.67Q-130.43 5.67-130.70 5.41Q-130.96 5.15-130.96 4.75L-130.96 4.75L-130.96-3.26Q-130.96-3.67-130.70-3.92Q-130.43-4.17-130.04-4.17L-130.04-4.17Q-129.62-4.17-129.37-3.92Q-129.12-3.67-129.12-3.26L-129.12-3.26L-129.12 4.75Q-129.12 5.15-129.37 5.41Q-129.62 5.67-130.04 5.67ZM-124.03 5.67L-124.03 5.67Q-124.42 5.67-124.68 5.41Q-124.94 5.15-124.94 4.75L-124.94 4.75L-124.94-0.39Q-124.94-1.53-125.50-2.08Q-126.06-2.63-126.96-2.63L-126.96-2.63Q-127.90-2.63-128.51-1.98Q-129.12-1.33-129.12-0.32L-129.12-0.32L-130.25-0.32Q-130.25-1.49-129.79-2.38Q-129.32-3.27-128.49-3.78Q-127.66-4.28-126.60-4.28L-126.60-4.28Q-125.57-4.28-124.78-3.83Q-123.99-3.38-123.55-2.51Q-123.11-1.64-123.11-0.39L-123.11-0.39L-123.11 4.75Q-123.11 5.15-123.36 5.41Q-123.61 5.67-124.03 5.67Z" />-->
<!--        <path fill="#193441" opacity="1" d="M-113.15 9.87L-113.15 9.87Q-113.55 9.87-113.81 9.61Q-114.07 9.34-114.07 8.95L-114.07 8.95L-114.07 0.74Q-114.05-0.68-113.41-1.82Q-112.76-2.95-111.64-3.61Q-110.53-4.26-109.12-4.26L-109.12-4.26Q-107.70-4.26-106.58-3.61Q-105.47-2.95-104.81-1.82Q-104.15-0.68-104.15 0.74L-104.15 0.74Q-104.15 2.16-104.76 3.29Q-105.36 4.41-106.40 5.07Q-107.45 5.73-108.76 5.73L-108.76 5.73Q-109.82 5.73-110.72 5.29Q-111.61 4.84-112.24 4.09L-112.24 4.09L-112.24 8.95Q-112.24 9.34-112.49 9.61Q-112.74 9.87-113.15 9.87ZM-109.12 4.11L-109.12 4.11Q-108.20 4.11-107.48 3.67Q-106.76 3.22-106.34 2.46Q-105.92 1.69-105.92 0.74L-105.92 0.74Q-105.92-0.23-106.34-1.00Q-106.76-1.76-107.48-2.20Q-108.20-2.64-109.12-2.64L-109.12-2.64Q-110.02-2.64-110.75-2.20Q-111.48-1.76-111.89-1.00Q-112.31-0.23-112.31 0.74L-112.31 0.74Q-112.31 1.69-111.89 2.46Q-111.48 3.22-110.75 3.67Q-110.02 4.11-109.12 4.11Z" />-->
<!--        <path fill="#193441" opacity="1" d="M-96.95 5.73L-96.95 5.73Q-98.41 5.73-99.53 5.09Q-100.64 4.45-101.28 3.32Q-101.92 2.20-101.92 0.74L-101.92 0.74Q-101.92-0.74-101.28-1.86Q-100.64-2.99-99.53-3.62Q-98.41-4.26-96.95-4.26L-96.95-4.26Q-95.51-4.26-94.40-3.62Q-93.28-2.99-92.64-1.86Q-92.00-0.74-92.00 0.74L-92.00 0.74Q-92.00 2.20-92.63 3.32Q-93.26 4.45-94.38 5.09Q-95.50 5.73-96.95 5.73ZM-96.95 4.11L-96.95 4.11Q-96.02 4.11-95.30 3.67Q-94.58 3.24-94.17 2.49Q-93.77 1.73-93.77 0.74L-93.77 0.74Q-93.77-0.25-94.17-1.01Q-94.58-1.78-95.30-2.21Q-96.02-2.64-96.95-2.64L-96.95-2.64Q-97.89-2.64-98.61-2.21Q-99.33-1.78-99.74-1.01Q-100.16-0.25-100.16 0.74L-100.16 0.74Q-100.16 1.73-99.74 2.49Q-99.33 3.24-98.61 3.67Q-97.89 4.11-96.95 4.11Z" />-->
<!--        <path fill="#193441" opacity="1" d="M-87.54 5.65L-87.54 5.65Q-87.83 5.65-88.07 5.48Q-88.31 5.31-88.40 5.06L-88.40 5.06L-91.07-2.93Q-91.21-3.49-91.06-3.84Q-90.91-4.19-90.38-4.19L-90.38-4.19Q-90.04-4.19-89.82-4.00Q-89.59-3.81-89.45-3.36L-89.45-3.36L-87.18 3.73L-87.81 3.73L-85.67-3.51Q-85.58-3.81-85.36-4.00Q-85.15-4.19-84.77-4.19L-84.77-4.19Q-84.41-4.19-84.18-4.00Q-83.96-3.81-83.89-3.51L-83.89-3.51L-82.14 3.30L-82.41 3.30L-80.29-3.36Q-80.03-4.19-79.35-4.19L-79.35-4.19Q-78.85-4.19-78.67-3.84Q-78.49-3.49-78.68-2.93L-78.68-2.93L-81.35 5.06Q-81.42 5.31-81.65 5.48Q-81.89 5.65-82.19 5.65L-82.19 5.65Q-82.48 5.65-82.73 5.48Q-82.99 5.31-83.06 5.06L-83.06 5.06L-84.91-1.80L-84.73-1.80L-86.68 5.06Q-86.75 5.31-86.99 5.48Q-87.23 5.65-87.54 5.65Z" />-->
<!--        <path fill="#193441" opacity="1" d="M-72.44 5.73L-72.44 5.73Q-73.93 5.73-75.09 5.09Q-76.25 4.45-76.91 3.32Q-77.57 2.20-77.57 0.74L-77.57 0.74Q-77.57-0.74-76.95-1.86Q-76.33-2.99-75.23-3.62Q-74.13-4.26-72.71-4.26L-72.71-4.26Q-71.30-4.26-70.30-3.64Q-69.29-3.02-68.76-1.93Q-68.23-0.84-68.23 0.58L-68.23 0.58Q-68.23 0.92-68.46 1.15Q-68.69 1.37-69.05 1.37L-69.05 1.37L-76.31 1.37L-76.31-0.07L-69.11-0.07L-69.85 0.43Q-69.86-0.47-70.21-1.18Q-70.55-1.89-71.18-2.30Q-71.81-2.72-72.71-2.72L-72.71-2.72Q-73.73-2.72-74.46-2.27Q-75.19-1.82-75.57-1.03Q-75.95-0.25-75.95 0.74L-75.95 0.74Q-75.95 1.73-75.50 2.50Q-75.05 3.28-74.26 3.73Q-73.46 4.18-72.44 4.18L-72.44 4.18Q-71.88 4.18-71.30 3.97Q-70.71 3.76-70.35 3.49L-70.35 3.49Q-70.08 3.30-69.77 3.29Q-69.45 3.28-69.22 3.48L-69.22 3.48Q-68.91 3.75-68.89 4.07Q-68.87 4.39-69.18 4.63L-69.18 4.63Q-69.79 5.11-70.70 5.42Q-71.61 5.73-72.44 5.73Z" />-->
<!--        <path fill="#193441" opacity="1" d="M-64.09-0.50L-65.00-0.50Q-65.00-1.58-64.47-2.44Q-63.94-3.29-63.04-3.80Q-62.14-4.30-61.06-4.30L-61.06-4.30Q-59.98-4.30-59.45-3.95Q-58.92-3.60-59.05-3.11L-59.05-3.11Q-59.10-2.86-59.25-2.72Q-59.41-2.59-59.60-2.55Q-59.80-2.52-60.04-2.57L-60.04-2.57Q-61.19-2.81-62.11-2.61Q-63.02-2.41-63.56-1.87Q-64.09-1.33-64.09-0.50L-64.09-0.50ZM-64.99 5.65L-64.99 5.65Q-65.42 5.65-65.65 5.43Q-65.89 5.20-65.89 4.75L-65.89 4.75L-65.89-3.29Q-65.89-3.72-65.65-3.96Q-65.42-4.19-64.99-4.19L-64.99-4.19Q-64.54-4.19-64.31-3.97Q-64.09-3.74-64.09-3.29L-64.09-3.29L-64.09 4.75Q-64.09 5.19-64.31 5.42Q-64.54 5.65-64.99 5.65Z" />-->
<!--        <path fill="#193441" opacity="1" d="M-56.04 5.65L-56.04 5.65Q-56.44 5.65-56.70 5.39Q-56.96 5.13-56.96 4.74L-56.96 4.74L-56.96-3.27Q-56.96-3.69-56.70-3.94Q-56.44-4.19-56.04-4.19L-56.04-4.19Q-55.63-4.19-55.37-3.94Q-55.12-3.69-55.12-3.27L-55.12-3.27L-55.12 4.74Q-55.12 5.13-55.37 5.39Q-55.63 5.65-56.04 5.65ZM-56.04-5.79L-56.04-5.79Q-56.53-5.79-56.88-6.14Q-57.23-6.50-57.23-6.98L-57.23-6.98Q-57.23-7.47-56.88-7.82Q-56.53-8.17-56.04-8.17L-56.04-8.17Q-55.55-8.17-55.20-7.82Q-54.85-7.47-54.85-6.98L-54.85-6.98Q-54.85-6.50-55.20-6.14Q-55.55-5.79-56.04-5.79Z" />-->
<!--        <path fill="#193441" opacity="1" d="M-43.39 5.67L-43.39 5.67Q-43.78 5.67-44.04 5.41Q-44.30 5.15-44.30 4.75L-44.30 4.75L-44.30 0.33Q-44.30-0.70-44.68-1.35Q-45.06-2.00-45.70-2.31Q-46.34-2.63-47.17-2.63L-47.17-2.63Q-47.92-2.63-48.53-2.32Q-49.15-2.01-49.51-1.50Q-49.87-0.99-49.87-0.32L-49.87-0.32L-51.00-0.32Q-51.00-1.46-50.45-2.35Q-49.90-3.24-48.95-3.76Q-47.99-4.28-46.81-4.28L-46.81-4.28Q-45.56-4.28-44.58-3.75Q-43.60-3.22-43.04-2.19Q-42.47-1.17-42.47 0.33L-42.47 0.33L-42.47 4.75Q-42.47 5.15-42.73 5.41Q-42.99 5.67-43.39 5.67ZM-50.78 5.67L-50.78 5.67Q-51.18 5.67-51.44 5.41Q-51.70 5.15-51.70 4.75L-51.70 4.75L-51.70-3.27Q-51.70-3.69-51.44-3.94Q-51.18-4.19-50.78-4.19L-50.78-4.19Q-50.37-4.19-50.12-3.94Q-49.87-3.69-49.87-3.27L-49.87-3.27L-49.87 4.75Q-49.87 5.15-50.12 5.41Q-50.37 5.67-50.78 5.67Z" />-->
<!--        <path fill="#193441" opacity="1" d="M-35.32 5.73L-35.32 5.73Q-36.67 5.73-37.71 5.09Q-38.74 4.45-39.34 3.32Q-39.93 2.20-39.93 0.74L-39.93 0.74Q-39.93-0.74-39.29-1.86Q-38.65-2.99-37.54-3.62Q-36.42-4.26-34.96-4.26L-34.96-4.26Q-33.52-4.26-32.41-3.62Q-31.29-2.99-30.65-1.86Q-30.01-0.74-30.01 0.74L-30.01 0.74L-31.07 0.74Q-31.07 2.20-31.62 3.32Q-32.17 4.45-33.13 5.09Q-34.08 5.73-35.32 5.73ZM-35.00 9.74L-35.00 9.74Q-36.28 9.74-37.39 9.24Q-38.51 8.73-39.28 7.76L-39.28 7.76Q-39.52 7.45-39.45 7.13Q-39.39 6.81-39.10 6.61L-39.10 6.61Q-38.78 6.39-38.43 6.46Q-38.08 6.54-37.86 6.82L-37.86 6.82Q-37.37 7.44-36.64 7.78Q-35.90 8.12-34.96 8.12L-34.96 8.12Q-34.10 8.12-33.37 7.71Q-32.64 7.29-32.21 6.48Q-31.78 5.67-31.78 4.50L-31.78 4.50L-31.78 1.95L-31.18 0.36L-30.01 0.74L-30.01 4.63Q-30.01 6.05-30.64 7.21Q-31.27 8.37-32.40 9.06Q-33.52 9.74-35.00 9.74ZM-34.96 4.11L-34.96 4.11Q-34.03 4.11-33.31 3.67Q-32.59 3.24-32.18 2.49Q-31.78 1.73-31.78 0.74L-31.78 0.74Q-31.78-0.25-32.18-1.01Q-32.59-1.78-33.31-2.21Q-34.03-2.64-34.96-2.64L-34.96-2.64Q-35.90-2.64-36.62-2.21Q-37.34-1.78-37.75-1.01Q-38.17-0.25-38.17 0.74L-38.17 0.74Q-38.17 1.73-37.75 2.49Q-37.34 3.24-36.62 3.67Q-35.90 4.11-34.96 4.11Z" />-->
<!--        <path fill="#193441" opacity="1" d="" />-->
<!--        <path fill="#193441" opacity="1" d="M-20.24 9.97L-20.24 9.97Q-20.42 9.97-20.67 9.87L-20.67 9.87Q-21.46 9.51-21.10 8.73L-21.10 8.73L-15.61-3.67Q-15.25-4.43-14.48-4.10L-14.48-4.10Q-13.67-3.76-14.03-2.97L-14.03-2.97L-19.54 9.42Q-19.75 9.97-20.24 9.97ZM-18.11 5.26L-18.11 5.26Q-18.46 5.40-18.75 5.29Q-19.05 5.17-19.23 4.83L-19.23 4.83L-23.35-3.00Q-23.53-3.35-23.40-3.66Q-23.26-3.98-22.92-4.12L-22.92-4.12Q-22.58-4.26-22.27-4.15Q-21.97-4.03-21.80-3.69L-21.80-3.69L-17.86 4.14Q-17.68 4.48-17.73 4.80Q-17.77 5.11-18.11 5.26Z" />-->
<!--        <path fill="#193441" opacity="1" d="M-8.20 5.73L-8.20 5.73Q-9.65 5.73-10.77 5.09Q-11.89 4.45-12.53 3.32Q-13.16 2.20-13.16 0.74L-13.16 0.74Q-13.16-0.74-12.53-1.86Q-11.89-2.99-10.77-3.62Q-9.65-4.26-8.20-4.26L-8.20-4.26Q-6.76-4.26-5.64-3.62Q-4.52-2.99-3.89-1.86Q-3.25-0.74-3.25 0.74L-3.25 0.74Q-3.25 2.20-3.88 3.32Q-4.51 4.45-5.62 5.09Q-6.74 5.73-8.20 5.73ZM-8.20 4.11L-8.20 4.11Q-7.26 4.11-6.54 3.67Q-5.82 3.24-5.42 2.49Q-5.01 1.73-5.01 0.74L-5.01 0.74Q-5.01-0.25-5.42-1.01Q-5.82-1.78-6.54-2.21Q-7.26-2.64-8.20-2.64L-8.20-2.64Q-9.13-2.64-9.85-2.21Q-10.57-1.78-10.99-1.01Q-11.40-0.25-11.40 0.74L-11.40 0.74Q-11.40 1.73-10.99 2.49Q-10.57 3.24-9.85 3.67Q-9.13 4.11-8.20 4.11Z" />-->
<!--        <path fill="#193441" opacity="1" d="M3.63 5.74L3.63 5.74Q2.39 5.74 1.41 5.21Q0.43 4.68-0.14 3.66Q-0.71 2.63-0.71 1.14L-0.71 1.14L-0.71-3.29Q-0.71-3.69-0.45-3.95Q-0.19-4.21 0.21-4.21L0.21-4.21Q0.61-4.21 0.87-3.95Q1.13-3.69 1.13-3.29L1.13-3.29L1.13 1.14Q1.13 2.14 1.51 2.80Q1.88 3.46 2.53 3.77Q3.18 4.09 3.99 4.09L3.99 4.09Q4.76 4.09 5.37 3.78Q5.97 3.48 6.33 2.95Q6.69 2.43 6.69 1.78L6.69 1.78L7.82 1.78Q7.82 2.90 7.27 3.80Q6.73 4.70 5.78 5.22Q4.84 5.74 3.63 5.74ZM7.61 5.65L7.61 5.65Q7.21 5.65 6.95 5.39Q6.69 5.13 6.69 4.74L6.69 4.74L6.69-3.29Q6.69-3.71 6.95-3.96Q7.21-4.21 7.61-4.21L7.61-4.21Q8.02-4.21 8.27-3.96Q8.53-3.71 8.53-3.29L8.53-3.29L8.53 4.74Q8.53 5.13 8.27 5.39Q8.02 5.65 7.61 5.65Z" />-->
<!--        <path fill="#193441" opacity="1" d="M13.57-0.50L12.65-0.50Q12.65-1.58 13.18-2.44Q13.71-3.29 14.61-3.80Q15.51-4.30 16.59-4.30L16.59-4.30Q17.67-4.30 18.20-3.95Q18.73-3.60 18.61-3.11L18.61-3.11Q18.55-2.86 18.40-2.72Q18.25-2.59 18.05-2.55Q17.85-2.52 17.62-2.57L17.62-2.57Q16.46-2.81 15.55-2.61Q14.63-2.41 14.10-1.87Q13.57-1.33 13.57-0.50L13.57-0.50ZM12.67 5.65L12.67 5.65Q12.23 5.65 12.00 5.43Q11.77 5.20 11.77 4.75L11.77 4.75L11.77-3.29Q11.77-3.72 12.00-3.96Q12.23-4.19 12.67-4.19L12.67-4.19Q13.12-4.19 13.34-3.97Q13.57-3.74 13.57-3.29L13.57-3.29L13.57 4.75Q13.57 5.19 13.34 5.42Q13.12 5.65 12.67 5.65Z" />-->
<!--        <path fill="#193441" opacity="1" d="" />-->
<!--        <path fill="#193441" opacity="1" d="M26.85 5.65L26.85 5.65Q26.51 5.65 26.24 5.40Q25.97 5.15 25.97 4.74L25.97 4.74L25.97-4.14Q25.97-5.43 26.48-6.39Q26.99-7.34 27.91-7.87Q28.83-8.40 30.04-8.40L30.04-8.40Q30.43-8.40 30.69-8.17Q30.95-7.94 30.95-7.58L30.95-7.58Q30.95-7.23 30.69-6.99Q30.43-6.75 30.04-6.75L30.04-6.75Q29.37-6.75 28.87-6.44Q28.36-6.14 28.08-5.60Q27.80-5.06 27.80-4.32L27.80-4.32L27.80 4.74Q27.80 5.15 27.55 5.40Q27.30 5.65 26.85 5.65ZM29.64-2.28L25.19-2.28Q24.82-2.28 24.58-2.50Q24.35-2.72 24.35-3.04L24.35-3.04Q24.35-3.40 24.58-3.62Q24.82-3.83 25.19-3.83L25.19-3.83L29.64-3.83Q30.02-3.83 30.25-3.62Q30.49-3.40 30.49-3.04L30.49-3.04Q30.49-2.72 30.25-2.50Q30.02-2.28 29.64-2.28L29.64-2.28Z" />-->
<!--        <path fill="#193441" opacity="1" d="M36.53 5.74L36.53 5.74Q35.29 5.74 34.31 5.21Q33.33 4.68 32.76 3.66Q32.20 2.63 32.20 1.14L32.20 1.14L32.20-3.29Q32.20-3.69 32.46-3.95Q32.72-4.21 33.11-4.21L33.11-4.21Q33.51-4.21 33.77-3.95Q34.03-3.69 34.03-3.29L34.03-3.29L34.03 1.14Q34.03 2.14 34.41 2.80Q34.79 3.46 35.44 3.77Q36.08 4.09 36.89 4.09L36.89 4.09Q37.67 4.09 38.27 3.78Q38.87 3.48 39.23 2.95Q39.59 2.43 39.59 1.78L39.59 1.78L40.73 1.78Q40.73 2.90 40.18 3.80Q39.63 4.70 38.68 5.22Q37.74 5.74 36.53 5.74ZM40.51 5.65L40.51 5.65Q40.12 5.65 39.85 5.39Q39.59 5.13 39.59 4.74L39.59 4.74L39.59-3.29Q39.59-3.71 39.85-3.96Q40.12-4.21 40.51-4.21L40.51-4.21Q40.93-4.21 41.18-3.96Q41.43-3.71 41.43-3.29L41.43-3.29L41.43 4.74Q41.43 5.13 41.18 5.39Q40.93 5.65 40.51 5.65Z" />-->
<!--        <path fill="#193441" opacity="1" d="M48.58 5.65L48.25 5.65Q47.35 5.65 46.63 5.20Q45.91 4.74 45.50 3.94Q45.08 3.15 45.08 2.16L45.08 2.16L45.08-6.42Q45.08-6.82 45.34-7.07Q45.59-7.32 45.98-7.32L45.98-7.32Q46.38-7.32 46.63-7.07Q46.88-6.82 46.88-6.42L46.88-6.42L46.88 2.16Q46.88 2.88 47.28 3.37Q47.68 3.85 48.25 3.85L48.25 3.85L48.86 3.85Q49.19 3.85 49.41 4.11Q49.64 4.36 49.64 4.75L49.64 4.75Q49.64 5.15 49.34 5.40Q49.04 5.65 48.58 5.65L48.58 5.65ZM48.41-2.28L44.26-2.28Q43.88-2.28 43.64-2.50Q43.41-2.72 43.41-3.04L43.41-3.04Q43.41-3.40 43.64-3.62Q43.88-3.83 44.26-3.83L44.26-3.83L48.41-3.83Q48.79-3.83 49.03-3.62Q49.26-3.40 49.26-3.04L49.26-3.04Q49.26-2.72 49.03-2.50Q48.79-2.28 48.41-2.28L48.41-2.28Z" />-->
<!--        <path fill="#193441" opacity="1" d="M56.03 5.74L56.03 5.74Q54.79 5.74 53.80 5.21Q52.82 4.68 52.26 3.66Q51.69 2.63 51.69 1.14L51.69 1.14L51.69-3.29Q51.69-3.69 51.95-3.95Q52.21-4.21 52.61-4.21L52.61-4.21Q53.00-4.21 53.26-3.95Q53.53-3.69 53.53-3.29L53.53-3.29L53.53 1.14Q53.53 2.14 53.90 2.80Q54.28 3.46 54.93 3.77Q55.58 4.09 56.39 4.09L56.39 4.09Q57.16 4.09 57.76 3.78Q58.37 3.48 58.73 2.95Q59.09 2.43 59.09 1.78L59.09 1.78L60.22 1.78Q60.22 2.90 59.67 3.80Q59.12 4.70 58.18 5.22Q57.23 5.74 56.03 5.74ZM60.01 5.65L60.01 5.65Q59.61 5.65 59.35 5.39Q59.09 5.13 59.09 4.74L59.09 4.74L59.09-3.29Q59.09-3.71 59.35-3.96Q59.61-4.21 60.01-4.21L60.01-4.21Q60.42-4.21 60.67-3.96Q60.92-3.71 60.92-3.29L60.92-3.29L60.92 4.74Q60.92 5.13 60.67 5.39Q60.42 5.65 60.01 5.65Z" />-->
<!--        <path fill="#193441" opacity="1" d="M65.96-0.50L65.05-0.50Q65.05-1.58 65.58-2.44Q66.11-3.29 67.01-3.80Q67.91-4.30 68.99-4.30L68.99-4.30Q70.07-4.30 70.60-3.95Q71.13-3.60 71.00-3.11L71.00-3.11Q70.95-2.86 70.80-2.72Q70.64-2.59 70.45-2.55Q70.25-2.52 70.01-2.57L70.01-2.57Q68.86-2.81 67.94-2.61Q67.03-2.41 66.49-1.87Q65.96-1.33 65.96-0.50L65.96-0.50ZM65.06 5.65L65.06 5.65Q64.63 5.65 64.40 5.43Q64.16 5.20 64.16 4.75L64.16 4.75L64.16-3.29Q64.16-3.72 64.40-3.96Q64.63-4.19 65.06-4.19L65.06-4.19Q65.51-4.19 65.74-3.97Q65.96-3.74 65.96-3.29L65.96-3.29L65.96 4.75Q65.96 5.19 65.74 5.42Q65.51 5.65 65.06 5.65Z" />-->
<!--        <path fill="#193441" opacity="1" d="M76.82 5.73L76.82 5.73Q75.32 5.73 74.16 5.09Q73.00 4.45 72.34 3.32Q71.69 2.20 71.69 0.74L71.69 0.74Q71.69-0.74 72.31-1.86Q72.93-2.99 74.03-3.62Q75.13-4.26 76.55-4.26L76.55-4.26Q77.95-4.26 78.96-3.64Q79.97-3.02 80.50-1.93Q81.03-0.84 81.03 0.58L81.03 0.58Q81.03 0.92 80.80 1.15Q80.56 1.37 80.20 1.37L80.20 1.37L72.95 1.37L72.95-0.07L80.15-0.07L79.41 0.43Q79.39-0.47 79.05-1.18Q78.71-1.89 78.08-2.30Q77.45-2.72 76.55-2.72L76.55-2.72Q75.52-2.72 74.79-2.27Q74.06-1.82 73.69-1.03Q73.31-0.25 73.31 0.74L73.31 0.74Q73.31 1.73 73.76 2.50Q74.21 3.28 75.00 3.73Q75.79 4.18 76.82 4.18L76.82 4.18Q77.38 4.18 77.96 3.97Q78.55 3.76 78.91 3.49L78.91 3.49Q79.18 3.30 79.49 3.29Q79.81 3.28 80.04 3.48L80.04 3.48Q80.35 3.75 80.36 4.07Q80.38 4.39 80.08 4.63L80.08 4.63Q79.46 5.11 78.55 5.42Q77.65 5.73 76.82 5.73Z" />-->
<!--        <path fill="#193441" opacity="1" d="" />-->
<!--        <path fill="#193441" opacity="1" d="M93.27 5.73L93.27 5.73Q91.78 5.73 90.61 5.09Q89.45 4.45 88.80 3.32Q88.14 2.20 88.14 0.74L88.14 0.74Q88.14-0.74 88.76-1.86Q89.38-2.99 90.48-3.62Q91.58-4.26 93.00-4.26L93.00-4.26Q94.40-4.26 95.41-3.64Q96.42-3.02 96.95-1.93Q97.48-0.84 97.48 0.58L97.48 0.58Q97.48 0.92 97.25 1.15Q97.01 1.37 96.65 1.37L96.65 1.37L89.40 1.37L89.40-0.07L96.60-0.07L95.86 0.43Q95.84-0.47 95.50-1.18Q95.16-1.89 94.53-2.30Q93.90-2.72 93.00-2.72L93.00-2.72Q91.97-2.72 91.24-2.27Q90.52-1.82 90.14-1.03Q89.76-0.25 89.76 0.74L89.76 0.74Q89.76 1.73 90.21 2.50Q90.66 3.28 91.45 3.73Q92.24 4.18 93.27 4.18L93.27 4.18Q93.83 4.18 94.41 3.97Q95.00 3.76 95.36 3.49L95.36 3.49Q95.63 3.30 95.94 3.29Q96.26 3.28 96.49 3.48L96.49 3.48Q96.80 3.75 96.82 4.07Q96.83 4.39 96.53 4.63L96.53 4.63Q95.92 5.11 95.01 5.42Q94.10 5.73 93.27 5.73Z" />-->
<!--        <path fill="#193441" opacity="1" d="M108.14 5.67L108.14 5.67Q107.74 5.67 107.48 5.41Q107.22 5.15 107.22 4.75L107.22 4.75L107.22 0.33Q107.22-0.70 106.84-1.35Q106.46-2.00 105.82-2.31Q105.19-2.63 104.36-2.63L104.36-2.63Q103.60-2.63 102.99-2.32Q102.38-2.01 102.02-1.50Q101.66-0.99 101.66-0.32L101.66-0.32L100.52-0.32Q100.52-1.46 101.07-2.35Q101.62-3.24 102.58-3.76Q103.53-4.28 104.72-4.28L104.72-4.28Q105.96-4.28 106.94-3.75Q107.92-3.22 108.49-2.19Q109.06-1.17 109.06 0.33L109.06 0.33L109.06 4.75Q109.06 5.15 108.79 5.41Q108.53 5.67 108.14 5.67ZM100.74 5.67L100.74 5.67Q100.34 5.67 100.08 5.41Q99.82 5.15 99.82 4.75L99.82 4.75L99.82-3.27Q99.82-3.69 100.08-3.94Q100.34-4.19 100.74-4.19L100.74-4.19Q101.15-4.19 101.41-3.94Q101.66-3.69 101.66-3.27L101.66-3.27L101.66 4.75Q101.66 5.15 101.41 5.41Q101.15 5.67 100.74 5.67Z" />-->
<!--        <path fill="#193441" opacity="1" d="M116.72 5.73L116.72 5.73Q115.23 5.73 114.07 5.09Q112.91 4.45 112.25 3.32Q111.59 2.20 111.59 0.74L111.59 0.74Q111.59-0.74 112.21-1.86Q112.84-2.99 113.93-3.62Q115.03-4.26 116.45-4.26L116.45-4.26Q117.86-4.26 118.87-3.64Q119.87-3.02 120.40-1.93Q120.94-0.84 120.94 0.58L120.94 0.58Q120.94 0.92 120.70 1.15Q120.47 1.37 120.11 1.37L120.11 1.37L112.85 1.37L112.85-0.07L120.05-0.07L119.32 0.43Q119.30-0.47 118.96-1.18Q118.61-1.89 117.98-2.30Q117.35-2.72 116.45-2.72L116.45-2.72Q115.43-2.72 114.70-2.27Q113.97-1.82 113.59-1.03Q113.21-0.25 113.21 0.74L113.21 0.74Q113.21 1.73 113.66 2.50Q114.11 3.28 114.91 3.73Q115.70 4.18 116.72 4.18L116.72 4.18Q117.28 4.18 117.87 3.97Q118.45 3.76 118.81 3.49L118.81 3.49Q119.08 3.30 119.40 3.29Q119.71 3.28 119.95 3.48L119.95 3.48Q120.25 3.75 120.27 4.07Q120.29 4.39 119.98 4.63L119.98 4.63Q119.37 5.11 118.46 5.42Q117.55 5.73 116.72 5.73Z" />-->
<!--        <path fill="#193441" opacity="1" d="M125.08-0.50L124.16-0.50Q124.16-1.58 124.69-2.44Q125.22-3.29 126.12-3.80Q127.02-4.30 128.10-4.30L128.10-4.30Q129.18-4.30 129.71-3.95Q130.24-3.60 130.12-3.11L130.12-3.11Q130.06-2.86 129.91-2.72Q129.76-2.59 129.56-2.55Q129.36-2.52 129.13-2.57L129.13-2.57Q127.97-2.81 127.06-2.61Q126.14-2.41 125.61-1.87Q125.08-1.33 125.08-0.50L125.08-0.50ZM124.18 5.65L124.18 5.65Q123.74 5.65 123.51 5.43Q123.28 5.20 123.28 4.75L123.28 4.75L123.28-3.29Q123.28-3.72 123.51-3.96Q123.74-4.19 124.18-4.19L124.18-4.19Q124.63-4.19 124.85-3.97Q125.08-3.74 125.08-3.29L125.08-3.29L125.08 4.75Q125.08 5.19 124.85 5.42Q124.63 5.65 124.18 5.65Z" />-->
<!--        <path fill="#193441" opacity="1" d="M135.41 5.73L135.41 5.73Q134.06 5.73 133.02 5.09Q131.99 4.45 131.39 3.32Q130.80 2.20 130.80 0.74L130.80 0.74Q130.80-0.74 131.44-1.86Q132.08-2.99 133.19-3.62Q134.31-4.26 135.77-4.26L135.77-4.26Q137.21-4.26 138.32-3.62Q139.44-2.99 140.08-1.86Q140.72-0.74 140.72 0.74L140.72 0.74L139.66 0.74Q139.66 2.20 139.11 3.32Q138.56 4.45 137.60 5.09Q136.65 5.73 135.41 5.73ZM135.73 9.74L135.73 9.74Q134.45 9.74 133.34 9.24Q132.22 8.73 131.45 7.76L131.45 7.76Q131.21 7.45 131.28 7.13Q131.34 6.81 131.63 6.61L131.63 6.61Q131.95 6.39 132.30 6.46Q132.65 6.54 132.87 6.82L132.87 6.82Q133.36 7.44 134.09 7.78Q134.83 8.12 135.77 8.12L135.77 8.12Q136.63 8.12 137.36 7.71Q138.09 7.29 138.52 6.48Q138.95 5.67 138.95 4.50L138.95 4.50L138.95 1.95L139.55 0.36L140.72 0.74L140.72 4.63Q140.72 6.05 140.09 7.21Q139.46 8.37 138.33 9.06Q137.21 9.74 135.73 9.74ZM135.77 4.11L135.77 4.11Q136.70 4.11 137.42 3.67Q138.14 3.24 138.55 2.49Q138.95 1.73 138.95 0.74L138.95 0.74Q138.95-0.25 138.55-1.01Q138.14-1.78 137.42-2.21Q136.70-2.64 135.77-2.64L135.77-2.64Q134.83-2.64 134.11-2.21Q133.39-1.78 132.98-1.01Q132.56-0.25 132.56 0.74L132.56 0.74Q132.56 1.73 132.98 2.49Q133.39 3.24 134.11 3.67Q134.83 4.11 135.77 4.11Z" />-->
<!--        <path fill="#193441" opacity="1" d="M145.22 9.97L145.22 9.97Q145.04 9.97 144.79 9.87L144.79 9.87Q143.99 9.51 144.35 8.73L144.35 8.73L149.84-3.67Q150.20-4.43 150.98-4.10L150.98-4.10Q151.79-3.76 151.43-2.97L151.43-2.97L145.92 9.42Q145.70 9.97 145.22 9.97ZM147.34 5.26L147.34 5.26Q147.00 5.40 146.70 5.29Q146.41 5.17 146.23 4.83L146.23 4.83L142.10-3.00Q141.92-3.35 142.06-3.66Q142.19-3.98 142.54-4.12L142.54-4.12Q142.88-4.26 143.18-4.15Q143.49-4.03 143.65-3.69L143.65-3.69L147.59 4.14Q147.77 4.48 147.73 4.80Q147.68 5.11 147.34 5.26Z" />-->
<!--  </g>-->
    <g transform="matrix(0.09851992129804021 -0.01714132746983038 0.017141327469830367 0.09851992129804012 430.70610944757425 223.60391624018362)">
    <path style="stroke: none; stroke-width: 1; stroke-dasharray: none; stroke-linecap: butt; stroke-dashoffset: 0; stroke-linejoin: miter; stroke-miterlimit: 4; fill: rgb(126,217,88); fill-rule: evenodd; opacity: 1;" transform=" translate(-423.3346891354045, -423.13111729300067)" d="M 528 336 c 30 52 60 104 90 156 c 125 215 144 179 -106 179 c -60 0 -120 0 -180 0 c -249 0 -227 35 -102 -182 c 30 -51 60 -103 90 -155 c 124 -216 84 -214 208 2 z" stroke-linecap="round" />
  </g>
    <g transform="matrix(0.06872321078201116 0.013308655071466318 -0.013308655071466318 0.06872321078201116 389.9928306283154 204.007712665674)">
    <path style="stroke: none; stroke-width: 1; stroke-dasharray: none; stroke-linecap: butt; stroke-dashoffset: 0; stroke-linejoin: miter; stroke-miterlimit: 4; fill: rgb(67,72,189); fill-rule: evenodd; opacity: 1;" transform=" translate(-423.3346891354045, -423.13111729300067)" d="M 528 336 c 30 52 60 104 90 156 c 125 215 144 179 -106 179 c -60 0 -120 0 -180 0 c -249 0 -227 35 -102 -182 c 30 -51 60 -103 90 -155 c 124 -216 84 -214 208 2 z" stroke-linecap="round" />
  </g>
    <g transform="matrix(-0.08208437014926445 -0.03690740003303596 0.03690740003303596 -0.08208437014926445 420.3644794093291 176.0083648864531)">
    <path style="stroke: none; stroke-width: 1; stroke-dasharray: none; stroke-linecap: butt; stroke-dashoffset: 0; stroke-linejoin: miter; stroke-miterlimit: 4; fill: rgb(253,116,0); fill-rule: evenodd; opacity: 1;" transform=" translate(-423.3346891354045, -423.13111729300067)" d="M 528 336 c 30 52 60 104 90 156 c 125 215 144 179 -106 179 c -60 0 -120 0 -180 0 c -249 0 -227 35 -102 -182 c 30 -51 60 -103 90 -155 c 124 -216 84 -214 208 2 z" stroke-linecap="round" />
  </g>
</svg>